<?xml version="1.0" encoding="utf-8"?><!-- Uploaded to: SVG Repo, www.svgrepo.com, Generator: SVG Repo Mixer Tools -->
<svg width="32px" height="32px" viewBox="0 0 24 24" fill="none" xmlns="http://www.w3.org/2000/svg">
<path d="M5.85557 6.83962C5.62315 6.71446 5.34204 6.72072 5.11541 6.85608C4.88878 6.99145 4.75 7.23599 4.75 7.49997V17C4.75 17.4142 5.08579 17.75 5.5 17.75C5.91421 17.75 6.25 17.4142 6.25 17V8.75563L11.6444 11.6603C11.8664 11.7799 12.1336 11.7799 12.3556 11.6603L17.75 8.75563V17C17.75 17.4142 18.0858 17.75 18.5 17.75C18.9142 17.75 19.25 17.4142 19.25 17V7.49997C19.25 7.23599 19.1112 6.99145 18.8846 6.85608C18.658 6.72072 18.3769 6.71446 18.1444 6.83962L12 10.1482L5.85557 6.83962Z" fill="#ffffff"/>
<path fill-rule="evenodd" clip-rule="evenodd" d="M17.3106 3.7218C13.7773 3.40588 10.2228 3.40588 6.68943 3.7218L5.17208 3.85747C3.54447 4.003 2.2294 5.24642 1.99301 6.86334C1.49501 10.2697 1.49501 13.7303 1.99301 17.1366C2.2294 18.7535 3.54447 19.9969 5.17208 20.1425L6.68943 20.2781C10.2228 20.5941 13.7773 20.5941 17.3106 20.2781L18.8279 20.1425C20.4556 19.9969 21.7706 18.7535 22.007 17.1366C22.505 13.7303 22.505 10.2697 22.007 6.86334C21.7706 5.24642 20.4556 4.003 18.8279 3.85747L17.3106 3.7218ZM6.82301 5.21584C10.2675 4.90787 13.7325 4.90787 17.177 5.21584L18.6944 5.35151C19.6305 5.43521 20.3868 6.15036 20.5228 7.08033C20.9998 10.3427 20.9998 13.6572 20.5228 16.9196C20.3868 17.8496 19.6305 18.5647 18.6944 18.6484L17.177 18.7841C13.7325 19.0921 10.2675 19.0921 6.82301 18.7841L5.30567 18.6484C4.36955 18.5647 3.61319 17.8496 3.47723 16.9196C3.00027 13.6572 3.00027 10.3427 3.47723 7.08033C3.61319 6.15036 4.36955 5.43521 5.30567 5.35151L6.82301 5.21584Z" fill="#ffffff"/>
</svg>