<?xml version="1.0" encoding="utf-8"?><!-- Uploaded to: SVG Repo, www.svgrepo.com, Generator: SVG Repo Mixer Tools -->
<svg width="32px" height="32px" viewBox="0 0 24 24" fill="none" xmlns="http://www.w3.org/2000/svg">
<path d="M21.0001 10.9999C21.0001 6.58166 17.4184 2.99994 13.0001 2.99994M14 7.12593C15.4057 7.48768 16.5123 8.59432 16.8741 10M16.062 14.2507V14.2507C16.6052 13.5264 17.5886 13.2943 18.3983 13.6992L19.6337 14.3168C20.4404 14.7202 20.8773 15.6135 20.7004 16.4979L20.3216 18.3922C20.1346 19.3271 19.3109 20.0146 18.3636 19.9075C11.1005 19.0859 4.91414 12.8995 4.09253 5.63644C3.98537 4.68912 4.67292 3.86542 5.60777 3.67845L7.50207 3.29959C8.38646 3.12271 9.27982 3.55963 9.68316 4.36632L10.3008 5.60168C10.7057 6.41142 10.4736 7.39483 9.7493 7.93802V7.93802C9.27761 8.2918 8.99002 8.86004 9.21796 9.40381C10.0014 11.2728 12.7272 13.9986 14.5962 14.782C15.14 15.01 15.7082 14.7224 16.062 14.2507Z" stroke="#ffffff" stroke-width="2" stroke-linecap="round" stroke-linejoin="round"/>
</svg>